<svg xmlns="http://www.w3.org/2000/svg" viewBox="0 0 72 72">
  <circle cx="36" cy="36" r="36" fill="#CC3433"/>
  <circle cx="36" cy="36" r="30" fill="#0E3386"/>
  <circle cx="36" cy="36" r="24" fill="#FFFFFF"/>
  <path d="M22 26h12v2h2.5c2 0 3.5 1.6 3.5 3.6v2.2c0 4.4-3.2 7.4-7.2 8.4v3.2h4.2v2.4H19.8v-2.4h4.2v-3.2c-4-1-7.2-4-7.2-8.4v-2.2c0-2 1.5-3.6 3.5-3.6H22V26z" fill="#0E3386"/>
  <path d="M19.2 28.2h-4.2v4.4c0 2.6 1.8 4.4 4.2 4.8" fill="none" stroke="#CC3433" stroke-width="2"/>
  <path d="M36.8 28.2h4.2v4.4c0 2.6-1.8 4.4-4.2 4.8" fill="none" stroke="#CC3433" stroke-width="2"/>
  <rect x="21.5" y="48" width="13" height="3.2" rx="0.6" fill="#CC3433"/>
  <g transform="translate(42 16) rotate(16)">
    <circle cx="7" cy="-1" r="1.6" fill="#CC3433"/>
    <circle cx="11" cy="1" r="1.2" fill="#0E3386"/>
    <circle cx="4" cy="-4" r="1.1" fill="#CC3433"/>
    <rect x="5" y="1" width="6" height="4.5" rx="1" fill="#CC3433"/>
    <rect x="5.6" y="5.4" width="4.8" height="7" fill="#0E3386"/>
    <rect x="4.6" y="11.8" width="6.8" height="3.4" fill="#CC3433"/>
    <path d="M4.2 15.2h7.6l2 10.6v18.4H2.2V25.8z" fill="#0E3386"/>
    <rect x="5.4" y="28" width="5.2" height="8" fill="#FFFFFF"/>
  </g>
</svg>
